<svg width="21" height="20" viewBox="0 0 21 20" fill="none" xmlns="http://www.w3.org/2000/svg">
<path d="M3 15C3.53043 15 4.03914 15.2107 4.41421 15.5858C4.78929 15.9609 5 16.4696 5 17C5 17.5304 4.78929 18.0391 4.41421 18.4142C4.03914 18.7893 3.53043 19 3 19C2.46957 19 1.96086 18.7893 1.58579 18.4142C1.21071 18.0391 1 17.5304 1 17C1 16.4696 1.21071 15.9609 1.58579 15.5858C1.96086 15.2107 2.46957 15 3 15ZM3 15V5.5C3 4.57174 3.36875 3.6815 4.02513 3.02513C4.6815 2.36875 5.57174 2 6.5 2C7.42826 2 8.3185 2.36875 8.97487 3.02513C9.63125 3.6815 10 4.57174 10 5.5V14.5C10 15.4283 10.3687 16.3185 11.0251 16.9749C11.6815 17.6313 12.5717 18 13.5 18C14.4283 18 15.3185 17.6313 15.9749 16.9749C16.6313 16.3185 17 15.4283 17 14.5V1M17 1L14 4M17 1L20 4" stroke="white" stroke-width="2" stroke-linecap="round" stroke-linejoin="round"/>
</svg>
